<svg width="28" height="28" viewBox="0 0 28 28" fill="none" xmlns="http://www.w3.org/2000/svg">
<path fill-rule="evenodd" clip-rule="evenodd" d="M0 2C0 0.895431 0.895431 0 2 0H26C27.1046 0 28 0.895431 28 2V26C28 27.1046 27.1046 28 26 28H2C0.895431 28 0 27.1046 0 26V2ZM2.99986 4.00002C2.99986 3.44773 3.44757 3.00002 3.99986 3.00002H11.4999C12.0521 3.00002 12.4999 3.44773 12.4999 4.00002V11.5C12.4999 12.0523 12.0521 12.5 11.4999 12.5H3.99986C3.44757 12.5 2.99986 12.0523 2.99986 11.5V4.00002ZM3.99986 15.5C3.44757 15.5 2.99986 15.9478 2.99986 16.5V24C2.99986 24.5523 3.44757 25 3.99986 25H11.4999C12.0521 25 12.4999 24.5523 12.4999 24V16.5C12.4999 15.9478 12.0521 15.5 11.4999 15.5H3.99986ZM15.5 4.00002C15.5 3.44773 15.9477 3.00002 16.5 3.00002H24C24.5523 3.00002 25 3.44773 25 4.00002V11.5C25 12.0523 24.5523 12.5 24 12.5H16.5C15.9477 12.5 15.5 12.0523 15.5 11.5V4.00002ZM16.5 15.5C15.9477 15.5 15.5 15.9478 15.5 16.5V24C15.5 24.5523 15.9477 25 16.5 25H24C24.5523 25 25 24.5523 25 24V16.5C25 15.9478 24.5523 15.5 24 15.5H16.5Z" fill="#5B6CFF"/>
</svg>
