<svg width="14" height="13" viewBox="0 0 14 13" fill="none" xmlns="http://www.w3.org/2000/svg">
<path d="M6.10329 1.31663C6.47013 0.573462 7.52987 0.573462 7.89671 1.31663L9.08506 3.72409C9.23059 4.01894 9.51178 4.2234 9.83713 4.27095L12.4962 4.65962C13.3161 4.77946 13.6429 5.7873 13.0493 6.36546L11.1268 8.23801C10.8909 8.46775 10.7833 8.79888 10.8389 9.12341L11.2924 11.7676C11.4325 12.5846 10.575 13.2076 9.84137 12.8217L7.46545 11.5723C7.17407 11.419 6.82593 11.419 6.53455 11.5723L4.15863 12.8217C3.425 13.2076 2.56745 12.5846 2.70757 11.7676L3.16109 9.12341C3.21675 8.79888 3.10909 8.46775 2.87321 8.23801L0.950678 6.36546C0.357085 5.7873 0.683869 4.77946 1.50378 4.65962L4.16287 4.27095C4.48822 4.2234 4.76941 4.01894 4.91495 3.72409L6.10329 1.31663Z" fill="#5B6CFF"/>
</svg>
