<svg width="105" height="24" viewBox="0 0 105 24" fill="none" xmlns="http://www.w3.org/2000/svg">
<g opacity="0.6">
<path d="M3 9L12 2L21 9V20C21 20.5304 20.7893 21.0391 20.4142 21.4142C20.0391 21.7893 19.5304 22 19 22H5C4.46957 22 3.96086 21.7893 3.58579 21.4142C3.21071 21.0391 3 20.5304 3 20V9Z" stroke="#2A2E52" stroke-width="2" stroke-linecap="round" stroke-linejoin="round"/>
<path d="M35.6406 16.1193H36.2628C37.6605 16.1193 38.1761 15.3097 38.5895 14.3892L41.598 7.27273H39.9702L38.0909 11.9432L35.9176 7.27273H34.2642L37.3835 13.6903L37.2685 13.9844C37.0895 14.4744 36.8168 14.7898 36.1392 14.7898H35.6406V16.1193ZM46.0625 14.206L44.1704 9.45455H42.2954V16H43.7826V11.5895L45.5255 16H46.6037L48.4062 11.5426V16H49.8807V9.45455H48.0057L46.0625 14.206ZM53.0433 9.45455H51.5561V16H53.0433V13.3537H55.5788V16H57.0617V9.45455H55.5788V12.0881H53.0433V9.45455ZM60.2297 11.5852V9.45455H58.7425V16H61.7169C63.3831 16 64.3419 15.0795 64.3462 13.7926C64.3419 12.4716 63.3831 11.5852 61.7169 11.5852H60.2297ZM65.1601 16H66.7027V9.45455H65.1601V16ZM60.2297 12.8509H61.7169C62.3859 12.8509 62.8675 13.2472 62.8675 13.8139C62.8675 14.3551 62.3859 14.7344 61.7169 14.7344H60.2297V12.8509ZM69.9005 13.9119V9.45455H68.4132V16H70.0027L72.6149 11.5384V16H74.1064V9.45455H72.5212L69.9005 13.9119ZM72.0993 7.20455C72.0951 7.62216 71.8564 7.9929 71.2556 7.9929C70.6462 7.9929 70.4161 7.61364 70.4161 7.20455H69.2698C69.2655 8.2017 70.0368 8.875 71.2556 8.875C72.4828 8.875 73.2541 8.2017 73.2541 7.20455H72.0993ZM78.3276 17.9006H79.8446V16H84.1273V17.9006H85.6188V14.7301H84.6046V9.45455H79.8745L79.687 11.7472C79.5634 13.2131 79.4015 14.2997 78.8475 14.7301H78.3276V17.9006ZM80.4327 14.7301C80.8461 14.1207 80.9995 13.1321 81.1103 11.7472L81.2125 10.6989H83.1302V14.7301H80.4327ZM89.7455 16.1278C91.6632 16.1278 92.8819 14.777 92.8819 12.7528C92.8819 10.7244 91.6632 9.36932 89.7455 9.36932C87.8279 9.36932 86.6092 10.7244 86.6092 12.7528C86.6092 14.777 87.8279 16.1278 89.7455 16.1278ZM89.7541 14.892C88.693 14.892 88.1731 13.946 88.1731 12.7486C88.1731 11.5511 88.693 10.5923 89.7541 10.5923C90.7981 10.5923 91.318 11.5511 91.318 12.7486C91.318 13.946 90.7981 14.892 89.7541 14.892ZM98.0783 14.206L96.1862 9.45455H94.3112V16H95.7984V11.5895L97.5413 16H98.6194L100.422 11.5426V16H101.896V9.45455H100.021L98.0783 14.206Z" fill="#2A2E52"/>
</g>
</svg>
